<?xml version="1.0" encoding="utf-8"?>
<!-- Generator: Adobe Illustrator 19.0.0, SVG Export Plug-In . SVG Version: 6.00 Build 0)  -->
<svg version="1.1" id="Calque_1" xmlns="http://www.w3.org/2000/svg" xmlns:xlink="http://www.w3.org/1999/xlink" x="0px" y="0px"
	 viewBox="0 0 59.9 59.9" style="enable-background:new 0 0 59.9 59.9;" xml:space="preserve">
<style type="text/css">
	.st0{fill:#FFFFFF;}
</style>
<g>
	<g>
		<path class="st0" d="M53.9,0H6C2.7,0,0,2.7,0,6v47.9c0,3.3,2.7,6,6,6h47.9c3.3,0,6-2.7,6-6V6C59.9,2.7,57.2,0,53.9,0L53.9,0z
			 M50.9,6v9h-6c-1.8,0-3,1.2-3,3v6h9v9h-9v20.9h-9V32.9h-6v-9h6v-7.5C32.9,10.8,37.7,6,43.4,6H50.9z M50.9,6"/>
	</g>
</g>
</svg>
