<svg xmlns="http://www.w3.org/2000/svg" xmlns:xlink="http://www.w3.org/1999/xlink" version="1.1" enable-background="new 0 0 1000 1000" xml:space="preserve" width="1000" height="1000" style=""><rect id="backgroundrect" width="100%" height="100%" x="0" y="0" fill="none" stroke="none"/>
<metadata> Svg Vector Icons : http://www.onlinewebfonts.com/icon </metadata>

<g class="currentLayer" style=""><title>Layer 1</title><g id="svg_1" class="selected" fill="#ffffff" fill-opacity="1"><g id="svg_2" fill="#ffffff" fill-opacity="1"><g id="svg_3" fill="#ffffff" fill-opacity="1"><path d="M500,990c270.2,0,490-219.8,490-490c0-270.2-219.8-490-490-490S10,229.8,10,500C10,770.2,229.8,990,500,990z M500,47.4c48,0,94.2,7.6,137.6,21.5c-12.4,17.6-14.3-7-18.1,3.3c-3.9,10.5-13.6,13.7-16.4,13.6c-5.5,8.3-10.6,17.1-16.1,25.3c-5.8,1.1-11.2,2.1-16.6,3c-2.2,0.3-3.8,1.2-5.3,2.9c-5.9,7-12,13.9-17.9,20.9c-5.2,6.2-10.2,12.5-15.3,18.7c-0.7,0.8-1.5,1.6-2.3,2.3c-3.9-1.4-7-3.7-9.9-6.3c-4.9-4.6-8.4-10.2-10.9-16.3c-3.5-8.2-5.4-16.8-6.4-25.7c-0.3-2.7-0.1-5,0.9-7.5c3.2-7.9,6.1-15.9,9.3-23.8c0.9-2.3,0.6-4-1.2-5.8c-5.6,0.3-11.3-1.3-17.2,0.6c0.6,1.4,1,2.6,1.6,3.7c1.8,3.9,3.7,7.9,5.5,11.8c0.4,0.8,0.5,1.8,0.7,2.7c-5,3.9-10,7.5-14.7,11.3c-4.7,3.9-8.8,8.4-13.8,12.2c-2.3-4.5-6-7.4-9.7-10.1c-6.3-4.6-4.1-3.8-11.9-3.6c-5.3,0.2-10.6,0.5-15.5,2.7c-2.7,1.2-5.6,1.1-8.6,1c-2.2-0.1-4.1-1-5.4-2.7c-0.4-0.5-0.7-1.1-1.1-1.6c-1.2-1.6-2.9-2-4.7-1.4c-1.5,0.5-3,1.2-4.3,2.1c-2.3,1.5-4.5,3.2-6.5,5c-2.5,2.3-5.2,4.3-8,6.1c-4.3,2.8-8.6,5.6-13,8.4c-1.6,1-2.6,2.2-2.9,4.2c-0.4,3-1.3,6-1.6,9c-0.4,4-0.5,8,0.8,12c1.8,5.2,6.3,7.5,11.5,5.6c6.2-2.3,12-5.4,17.3-9.5c3.4-2.7,6.3-6,7.9-10.2c0.3-0.8,0.6-1.5,1-2.2c0.9-1.4,2.1-1.8,3.7-1.1c1.3,0.6,2.6,1.3,3.9,1.9c3.3,1.6,6.6,1.5,9.7-0.3c1.7-1,3.3-2.1,4.8-3.3c1.4-1.1,2.6-2.4,3.8-3.7c2.1-2.1,4.4-3.7,7.1-4.8c5.1-2.1,8.8-1.1,11.7,3.5c2.2,3.5,5.1,6.2,8.5,8.4c1.5,1,2.9,2.1,4.2,3.3c2,1.9,2.7,4.3,2,7.1c-0.7,3-2.2,5.7-3.9,8.3c-1.4,2.2-2.8,4.3-4,6.6c-0.6,1.1-1,2.4-1.2,3.6c-0.3,1.3,1,2.7,2.3,2.4c1.7-0.3,3.4-0.9,5.1-1.3c1-0.3,2-0.6,3.5-1c-0.6,10-2.1,19.3-6.9,27.7c-0.9,1.5-2,3-3.2,4.2c-3.6,3.5-7.8,4.9-12.8,3.7c-3.5-0.8-6.7-2.1-9.4-4.6c-5.4-4.9-10.3-4.3-15.1,0.9c-1.5,1.6-2.8,3.5-3.9,5.5c-1.1,2.1-2.6,3.1-4.7,3.7c-9.4,2.5-18.9,3.6-28.7,2.3c-1.6-0.2-3.1-0.1-4.7,0.3c-6.2,1.9-12.3,3.6-18.5,5.3c-2.5,0.7-4.8,1.7-7,3c-4.1,2.5-8.5,4.6-13.1,6.1c-4.7,1.5-9.4,2.3-13.9-1c-14.7,12.3-31.1,21.3-49.4,27.1c-1.1,6.8-2.1,13.5-3.2,20.1c-1.3,8.1-2.5,16.2-3.8,24.3c-0.3,2-1.2,2.8-3,3.1c-2.2,0.4-4.3,0-5.7-1.8c-1.4-1.7-2.8-3.5-3.8-5.5c-2.6-5.1-4.1-10.5-4.7-16.1c-0.8-7.8-5-13.1-11.7-16.5c-8.9-4.5-18.4-5.9-28.2-4.2c-16,2.8-29.7,10.3-40.8,22.3c-9.3,10.1-9.2,10.1-11.8,24.1c-0.9,4.9-1,9.9,0.5,14.8c1.6,5,4.9,8.1,10.1,9.2c2.7,0.6,5.4,0.8,8.1,0.3c3-0.6,10.9-2.2,11.7-1.9c2.3,0.9,4.3,2.3,5.8,4.3c1.9,2.5,2.4,5.2,1.1,8.1c-1,2.3-2.4,4.2-4.3,5.8c-2.3,2-9.4,7-10.4,7.9c-4,3.7-3.9,8.1,0.2,11.6c1,0.8,2.1,1.5,3.2,2.2c0.9,0.6,1.9,1.1,3,1.7c-0.3,2.9-0.5,5.6-0.8,8.3c-0.8,7.1-0.9,14.1-0.5,21.2c0.4,6.8,3.3,12.5,8.8,16.5c3.6,2.6,7.5,5,11.5,7.1c2.2,1.2,4.8,2,7.2,2.6c7.3,1.9,13.8,0.3,19.1-5.1c2.2-2.3,4-5,5.7-7.7c3.2-5,7.7-7.1,13.5-6c3.1,0.6,5.8,2.1,8,4.3c2.7,2.7,5.9,4.4,9.3,6c4.5,2.2,8.9,4.4,13.5,6.5c1.6,0.7,3.3,1.3,5,1.7c12.7,3.2,23.6,9.3,31.6,19.9c1.7,2.2,3.6,3.4,6.1,4.3c11.9,4.2,22.9,10.2,32.7,18.2c12.4,10.1,21.6,22.4,26.4,37.8c1.1,3.6,2.7,6.7,5.5,9.4c2.6,2.6,4.7,5.7,6.7,8.8c2.6,4.2,4.9,8.7,7.3,13.1c0.6,1.1,1.2,2.2,1.8,3.1c2.3,0.5,4.4,0.8,6.4,1.3c13.6,3,26.4,8,38.1,15.8c6,4.1,11.4,8.8,16.1,14.5c1.3,1.5,2,3.1,2.1,5.2c0.3,18.3-6.4,33.3-21.7,43.8c-2,1.4-3.1,3-4,5.2c-3.9,10.7-8,21.4-12.1,32.1c-0.7,1.9-1.7,3.8-2.9,5.5c-5.4,7.6-10.9,15.1-16.3,22.8c-1.7,2.5-3.8,4.3-6.4,5.7c-2,1-4,2.1-6,3.1c-7.4,3.5-15.2,6-23.3,7.7c-2.1,0.4-3.8,1.3-5.2,3.1c-5.3,7.1-10.8,14-16.3,21c-0.6,0.8-1.2,1.5-1.7,2.4c-5.2,9.6-11.6,18.6-17.6,27.7c-1.4,2.1-3,3.7-5.1,5c-8.7,5.8-17.4,11.6-26.1,17.5c-2.5,1.7-4.9,3.7-7.1,5.7c-4.3,4.1-8.6,8.3-12.8,12.5c-1.1,1.1-2.1,2.4-2.8,3.8c-4.1,8.8-8,17.6-12,26.3c-0.9,1.9-1,3.6-0.6,5.6c2.7,14.5,5.5,29.1,8.2,43.6c0.3,1.7,0.7,3.4,0.6,5.1c-3.7,0.1-3.7,0.2-7.2-1.3c-6.1-2.6-11.5-6.4-16.5-10.8c-11.3-10.1-19.9-22.3-27.5-35.3c-0.7-1.2-1.1-2.7-1.3-4.1c-1.7-11.5-3.3-22.9-4.9-34.4c-0.2-1.5-0.7-2.8-1.5-4c-1.9-2.9-2.8-6.1-3.4-9.5c-1.5-7.9-0.6-15.7,0.6-23.5c1.4-9.2,2.8-18.4,4.2-27.7c0.2-1.3,0.1-2.5-0.7-3.6c-2.3-3.1-2.9-6.7-3.2-10.5c-0.4-7.2,0.8-14.1,2.7-21c0.7-2.5,1.2-5,1.6-7.5c1.2-8.3,2.4-16.6,3.5-24.8c0.5-3.5,0.8-7,1.2-10.3c-0.7-0.7-1.2-1.1-1.7-1.5c-4.6-3.9-7.3-8.9-8.5-14.8c-0.8-4.2-0.8-8.3,0-12.5c0.6-3.1,1.3-6.2,2-9.4c-1.6-1.1-3.1-2.1-4.5-3.1c-7-4.9-13.5-10.4-19-17.1c-5.6-6.8-11.2-13.7-16.6-20.8c-2.1-2.8-4.1-5.8-5.7-8.9c-2.6-5.1-3.9-10.6-2.6-16.4c0.3-1.3,0-2.5-0.4-3.7c-3.3-9.3-3.7-18.9-3-28.6c0.5-6.7,2.3-13,6.1-18.6c2.3-3.5,4.6-7,7-10.4c4.3-6.1,8.6-12.1,12.9-18.1c4.3-5.8,6.7-12.4,7.9-19.5c0.6-3.2,0.9-6.4,0.6-9.6c-0.5-5-2.2-9.3-6.5-12.4c-4.7-3.4-9.3-7-14-10.2c-2.5-1.7-3.6-3.9-4.3-6.6c-1.5-6.6-3.4-13.1-4.8-19.7c-0.5-2.3-1.5-4.1-3.3-5.6c-2.9-2.4-5.6-4.9-8.4-7.3c-1.1-1-2.1-2-3.1-2.9c0.2-6.1,1.9-11.9,2-18c-1.6-0.7-3.1-1.3-4.5-1.9c-7.3-3.1-14.2-6.9-20.4-11.9c-3.8-3.1-7.2-6.5-9.8-10.6c-3.3-5.3-5-11.1-4-17.5c0.7-4.5,1.2-8.9,1.8-13.4c0.4-3.5,0.9-7,1.3-10.5c0.1-0.6,0.2-1.3-0.8-1.4c0,0,3.1-5.6-10.4-22.2c-1-1.3-1.9-2.6-2.7-3.9C201.8,129.4,341.4,47.4,500,47.4z M734.4,887c10.4-10.9,17.8-22.6,10.9-31.8c-3.8-3.6-3.5-8-2-12.5c0.9-2.6,1.7-5.2,2.8-7.7c3.3-7.5,6.8-14.9,10.2-22.4c3.8-8.2,7.5-16.4,11.3-24.5c2.3-5,2.6-10.2,1.5-15.5c-1.4-6.3-2.6-12.6-3.8-18.9c-1.3-6.3-1.3-12.5,0.8-18.6c4.1-11.5,9.6-22.1,18.5-30.7c2.8-2.7,5.3-5.6,7.8-8.5c3.3-3.8,5.7-8.1,7.5-12.9c2.2-6,3.1-12.1,1.8-18.5c-1-4.9-2.7-9.6-4.4-14.3c-1.4-4-2.8-7.9-4-11.9c-1.9-6.5-2.1-13-0.4-19.6c1.1-4.2,2.6-8.3,4.1-12.4c1.5-4.2,3.2-8.4,4.7-12.6c2-5.5,3.1-11.2,2.5-17.1c-0.4-4-1.1-8-2-11.9c-1-4.2-2.8-4.9-6.7-3.4c-1.5,0.6-2.9,1.3-4.4,1.9c-4.6,2-7.5,1.1-9.8-2.2c-1.7-2.5-4.2-4-7.1-4.7c-2.5-0.7-5-1.5-7.5-1.6c-8.5-0.6-17-0.3-25.6,0.2c-6.3,0.4-12.5,0.6-18.8,0.7c-1.9,0-3.8-0.4-5.7-0.7c-5.1-0.9-9.9-2.8-14.5-5c-8.5-4-16.1-9.3-23.5-15.1c-11.9-9.4-22.6-20.1-33.5-30.6c-1.5-1.4-2.4-3.1-2.9-5c-0.6-2.3-1.1-4.7-1.3-7.1c-0.9-11,0.4-21.8,2.4-32.6c2.2-11.6,5.1-22.9,8.4-34.2c1.9-6.4,2.9-12.9,2.8-19.5c0-2.8-0.2-5.5-1.7-7.9c-1.3-2.1-1.2-4.3-0.3-6.5c1.6-3.5,3.1-7.1,5.1-10.4c6.8-11,16.7-18.1,29.2-21.5c2.8-0.7,4.9-2,6.7-4.2c4.7-5.8,9.6-11.3,14.2-17.1c1.6-2,3.4-3.2,5.9-3.9c7.2-2.1,14.4-4.4,21.7-6.6c6.3-2,12.8-3,19.4-3.2c12-0.5,23.8,0.9,35,5.3c1.9,0.7,3.7,0.8,5.7,0.8c6.8-0.1,13.5-0.2,20.2,0.9c6.4,1,12.4,2.8,17.6,7.1c9.2,7.5,18.8,14.6,28.3,21.9c5.2,4,5.2,4,11.8,3.9c10-0.2,20-0.2,29.8,1.9c0.4,0.1,0.9-0.1,1.6-0.3c-0.1-1.3-0.1-2.6-0.3-3.8c-1-4.4-2.2-8.8-4.4-12.7c-1.6-2.9-3.4-5.9-5.5-8.5c-4.4-5.3-10.1-8.3-17.1-8.8c-1.9-0.1-3.8-0.4-5.7-0.7c-5.5-1-9.5-3.9-11.5-9.2c-0.9-2.4-1.3-5-2-7.4c-0.2-0.9-0.7-1.7-1.1-2.6c-0.7,0.4-1.1,0.6-1.4,0.9c-0.9,1-1.7,2-2.4,3c-1,1.3-1.8,2.7-2.9,3.9c-3.4,4-6.1,3.7-8.6-0.8c-0.5-1-1-2-1.4-3.1c-0.6-1.5-1-3-1.6-4.6c-0.8-2.1-1.5-4.3-2.4-6.3c-1.8-3.9-3.6-4.1-6.2-0.8c-0.5,0.6-0.9,1.3-1.5,1.9c-0.9,0.9-1.7,1.9-2.7,2.7c-3.5,2.7-7.1,2.7-10.6,0.1c-0.6-0.5-1.2-1.1-1.8-1.6c-1.6-1.5-2.4-3.2-2.4-5.5c0.1-2.9,0-5.8-0.3-8.7c-0.2-1.7-0.8-3.4-1.4-5.1c-0.5-1.3-2.1-1.7-3.3-0.8c-1.2,0.8-2.2,1.8-3.5,2.9c-1.5-0.6-2.9-1.2-4.4-1.8c-6.3-2.9-12.6-5.8-18.9-8.6c-2.2-1-4.2-2.1-6-4.5c-3.4,11.3-3.7,22.5-5.3,33.6c-1.2,0.4-2.4,0.8-3.6,1.1c-5.3,1.3-10.6,2.5-15.9,4c-8.6,2.5-16.2,0.8-23.1-4.7c-5-3.9-8.9-8.8-12-14.3c-4-7-7.8-14-11.7-21.1c-0.5-0.8-0.8-1.7-1.2-2.6c1.8-2,4.1-2.7,6.2-3.9c9.4-5.4,19.4-8.6,30.4-7.5c1.3,0.1,2.5-0.1,3.6-0.9c0.8-0.6,1.6-1,2.5-1.5c4.1-2.6,8.6-4.7,12.1-7.9c3.6-3.3,6.3-7.7,9.3-11.7c1.2-1.6,2.8-3.1,3.5-5.2c-1.4-3.3-2.7-6.6-4.2-9.8c-1.3-2.6-1.5-5.2-1.1-8c0.5-3.3,1.1-6.7,1.5-10c0.2-1.2,0.7-2.5-0.5-3.8c-5.2-0.7-10.6-1.6-16.1-2.1c-2.6-0.2-4.1-1.3-5.3-3.4c-1.6-3-3.5-5.8-5.1-8.7c-1.1-2.1-2.7-3-5-3.2c-3-0.3-6.1-0.9-9.1-1.1c-2.5-0.1-4.3-1.2-5.8-3c-2.4-2.7-3.9-5.9-5-9.3c-1.6-4.8-2.1-9.7-2.5-14.7c-0.5-6.4-0.2-12.8,0.8-19.5c1.3-0.2,2.5-0.6,3.7-0.7c1.3-0.2,2.6-0.1,3.9-0.2c1.1-0.1,2.2-0.3,3.3-0.4c1.3-0.1,2.6-0.2,3.8-0.4c1.2-0.1,2.5,0.2,3.6-0.8c0,0,10.8,1.6,12.7-11.3c0.2-1.3,0.7-2.6,1.3-3.9C868.9,199.1,952.6,339.9,952.6,500C952.6,663.8,865.1,807.6,734.4,887z" id="svg_4" fill="#ffffff" fill-opacity="1"/></g></g><g id="svg_5" fill="#ffffff" fill-opacity="1"/><g id="svg_6" fill="#ffffff" fill-opacity="1"/><g id="svg_7" fill="#ffffff" fill-opacity="1"/><g id="svg_8" fill="#ffffff" fill-opacity="1"/><g id="svg_9" fill="#ffffff" fill-opacity="1"/><g id="svg_10" fill="#ffffff" fill-opacity="1"/><g id="svg_11" fill="#ffffff" fill-opacity="1"/><g id="svg_12" fill="#ffffff" fill-opacity="1"/><g id="svg_13" fill="#ffffff" fill-opacity="1"/><g id="svg_14" fill="#ffffff" fill-opacity="1"/><g id="svg_15" fill="#ffffff" fill-opacity="1"/><g id="svg_16" fill="#ffffff" fill-opacity="1"/><g id="svg_17" fill="#ffffff" fill-opacity="1"/><g id="svg_18" fill="#ffffff" fill-opacity="1"/><g id="svg_19" fill="#ffffff" fill-opacity="1"/></g></g></svg>