<?xml version="1.0" encoding="utf-8"?>
<!-- Generator: Adobe Illustrator 19.0.0, SVG Export Plug-In . SVG Version: 6.00 Build 0)  -->
<svg version="1.1" id="Calque_1" xmlns="http://www.w3.org/2000/svg" xmlns:xlink="http://www.w3.org/1999/xlink" x="0px" y="0px"
	 viewBox="0 0 624 316.4" style="enable-background:new 0 0 624 316.4;" xml:space="preserve">
<style type="text/css">
	.st0{fill:#003E7E;}
	.st1{fill:#E2007A;}
</style>
<path id="XMLID_48_" class="st0" d="M302.1,232.1c-2.1,1.9-8.4,5.3-14.5,7.2c-5.2,1.8-10.2,3.2-17.6,4.7c-7.4,1.5-15.6,2.2-24.7,2.2
	c-12,0-23.2-2-33.7-6.1s-19.5-9.8-27.2-17.3c-7.7-7.5-13.7-16.4-18.1-26.9s-6.6-22.1-6.6-34.9c0-12.8,2.2-24.4,6.6-34.9
	s10.4-19.4,18.1-26.9c7.7-7.5,16.8-13.2,27.2-17.3c10.5-4,21.7-6.1,33.7-6.1c7.8,0,14.8,0.6,21,1.8c6.2,1.2,11.5,2.5,15.7,3.8
	c5,1.6,9.5,3.4,13.4,5.3v46.9c-3.4-2.6-7.2-4.9-11.4-6.8c-3.7-1.8-8.1-3.4-13.2-4.9c-5.1-1.5-10.7-2.2-16.9-2.2
	c-6,0-11.6,0.9-16.8,2.6c-5.2,1.7-9.7,4.3-13.5,7.7c-3.8,3.4-6.8,7.7-9,12.9c-2.2,5.2-3.3,11.2-3.3,18c0,7,1.1,13,3.3,18.2
	c2.2,5.2,5.1,9.5,8.8,12.9c3.6,3.4,7.9,6,12.8,7.7c4.9,1.7,10,2.6,15.3,2.6c1.3,0,2.5,0,3.5-0.1c1.1-0.1,2-0.2,2.8-0.4
	c0.8-0.2,1.5-0.3,1.9-0.5v-37.9l42.5,13.9V232.1z"/>
<path id="XMLID_50_" class="st1" d="M371.6,80.1V215c0,68.2-49.4,100.9-77.8,100.9v-30.3c16.4-4.5,28.5-19.5,28.5-67.7V65
	L371.6,80.1z"/>
<path id="XMLID_19_" class="st0" d="M485.2,80.1h-39.9L380.5,242h49.4l11.7-28h44.3l11.2,28H548L485.2,80.1z M464.1,182.7
	c-11.6,0-20.9-9.4-20.9-20.9s9.4-20.9,20.9-20.9s20.9,9.4,20.9,20.9S475.6,182.7,464.1,182.7z"/>
<polygon id="XMLID_25_" class="st0" points="322.2,48 322.2,0 371.6,15.1 371.6,63.1 "/>
<g id="XMLID_5_">
	<path id="XMLID_7_" d="M393,257.4c3.5,0,7,1.8,7,6.1c0,2.5-1.3,4.1-2.2,4.6c1.4,0.8,3.2,2.8,3.2,5.4c0,5.2-4.3,6.3-8.1,6.3h-12.5
		v-22.5H393z M393,267.1c2.9,0,4.4-1.5,4.4-3.6c0-1.9-1.4-3.4-4.4-3.4h-9.9v7H393z M393,277.3c3.3,0,5.5-0.8,5.5-3.6
		c0-2.6-2.1-4-5.5-4h-9.9v7.6H393z"/>
	<path id="XMLID_23_" d="M423.5,256.9c6.9,0,12.1,5.4,12.1,11.7c0,6.3-5.2,11.7-12.1,11.7c-6.9,0-12.1-5.4-12.1-11.7
		C411.4,262.3,416.5,256.9,423.5,256.9z M423.5,277.7c5.4,0,9.5-4.1,9.5-9.1c0-5-4-9.1-9.5-9.1c-5.4,0-9.4,4.1-9.4,9.1
		C414,273.6,418.1,277.7,423.5,277.7z"/>
	<path id="XMLID_27_" d="M467.1,279.9h-3l-5.2-9.4H450v9.4h-2.6v-22.5h11.2c3.4,0,9.1,0.6,9.1,6.4c0,4.9-3.1,6.4-5.8,6.7
		L467.1,279.9z M459.6,267.9c3,0,5.4-0.4,5.4-4c0-2.8-2.5-3.8-4.9-3.8H450v7.9H459.6z"/>
	<path id="XMLID_31_" d="M490,257.4c7.7,0,10.4,7.2,10.4,11.2c0,4-2.2,11.2-10.4,11.2h-11v-22.5H490z M490,277.3
		c5.1,0,7.7-5,7.7-8.6c0-3.7-2.6-8.6-7.7-8.6h-8.4v17.2H490z"/>
	<path id="XMLID_34_" d="M530.7,279.9h-19.1v-22.5H530v2.6h-15.8v6.9h8.3v2.6h-8.3v7.7h16.5V279.9z"/>
	<path id="XMLID_36_" d="M562.1,279.9h-2.9l-3.7-7.7h-10.8l-3.5,7.7h-2.9l10.7-22.5h2.6L562.1,279.9z M550.3,260.6l-4.2,8.9h8.3
		L550.3,260.6z"/>
	<path id="XMLID_40_" d="M591.8,271.2c0,5.8-3,9.2-9.9,9.2c-7.1,0-9.9-3.5-9.9-9.2v-13.8h2.6v13.8c0,4.8,2.5,6.6,7.3,6.6
		c4.8,0,7.3-1.8,7.3-6.6v-13.8h2.6V271.2z"/>
	<path id="XMLID_42_" d="M620.7,279.9l-7.8-10.2l-7.9,10.2h-3.4l9.6-12.3l-7.9-10.2h3.4l6.2,8.1l6.3-8.1h3.4l-8,10.2l9.5,12.3H620.7
		z"/>
	<path id="XMLID_44_" d="M402.3,311.9c-1.3,1.2-4.2,4.5-10.8,4.5c-6.1,0-12.5-4-12.5-11.7c0-7.8,6.4-11.7,12.1-11.7
		c6.2,0,9.7,3.3,10.9,4.5l-1.9,1.8c-1.2-1-4.3-3.7-8.9-3.7c-5.8,0-9.5,4.4-9.5,9s3.7,9.1,10,9.1c5.2,0,7.8-2.8,8.9-3.8L402.3,311.9z
		"/>
	<path id="XMLID_46_" d="M434,315.9h-2.9l-3.7-7.7h-10.8l-3.5,7.7h-2.9l10.7-22.5h2.6L434,315.9z M422.2,296.6l-4.2,8.9h8.3
		L422.2,296.6z"/>
	<path id="XMLID_53_" d="M463.7,307.2c0,5.8-3,9.2-9.9,9.2c-7.1,0-9.9-3.5-9.9-9.2v-13.8h2.6v13.8c0,4.8,2.5,6.6,7.3,6.6
		c4.8,0,7.3-1.8,7.3-6.6v-13.8h2.6V307.2z"/>
	<path id="XMLID_55_" d="M488.3,293.4c7.7,0,10.4,7.2,10.4,11.2c0,4-2.2,11.2-10.4,11.2h-11v-22.5H488.3z M488.3,313.3
		c5.1,0,7.7-5,7.7-8.6c0-3.7-2.6-8.6-7.7-8.6h-8.4v17.2H488.3z"/>
	<path id="XMLID_58_" d="M529,315.9h-19.1v-22.5h18.5v2.6h-15.8v6.9h8.3v2.6h-8.3v7.7H529V315.9z M520.9,291.5h-2.6l2.4-3.7h3.6
		L520.9,291.5z"/>
	<path id="XMLID_61_" d="M559.8,315.9h-3l-5.2-9.4h-8.9v9.4h-2.6v-22.5h11.2c3.4,0,9.1,0.6,9.1,6.4c0,4.9-3.1,6.4-5.8,6.7
		L559.8,315.9z M552.4,303.9c3,0,5.4-0.4,5.4-4c0-2.8-2.5-3.8-4.9-3.8h-10.1v7.9H552.4z"/>
	<path id="XMLID_64_" d="M591.9,315.9H589l-3.7-7.7h-10.8l-3.5,7.7H568l10.7-22.5h2.6L591.9,315.9z M580,296.6l-4.2,8.9h8.3
		L580,296.6z"/>
	<path id="XMLID_67_" d="M621.7,315.9h-2.6l-14.6-18.3h-0.1v18.3h-2.6v-22.5h2.6L619,312h0.1v-18.6h2.6V315.9z"/>
</g>
<path id="XMLID_69_" class="st0" d="M104.8,80.1H64.9L0,242h49.4l11.7-28h44.3l11.2,28h51.1L104.8,80.1z M83.6,182.7
	c-11.6,0-20.9-9.4-20.9-20.9s9.4-20.9,20.9-20.9s20.9,9.4,20.9,20.9S95.2,182.7,83.6,182.7z"/>
</svg>
